<svg width="1512" height="1256" viewBox="0 0 1512 1256" fill="none" xmlns="http://www.w3.org/2000/svg">
<path d="M1589 979L805.263 495.5V495.5C571.176 358.438 668.393 0 939.654 0L1589 0L1589 979Z" fill="url(#paint0_linear_84_63)"/>
<path d="M-136.904 560.855C-87.9895 508.032 -24.5094 470.901 45.5086 454.156C115.526 437.411 188.937 441.805 256.458 466.781C323.979 491.758 382.577 536.197 424.842 594.477C467.107 652.757 491.141 722.261 493.904 794.201C496.668 866.14 478.037 937.283 440.367 998.634C402.697 1059.98 347.681 1108.79 282.275 1138.87C216.87 1168.95 144.012 1178.97 72.9158 1167.64C1.81966 1156.32 -64.3219 1124.16 -117.145 1075.25L130.173 808.173L-136.904 560.855Z" fill="#2C7AB8"/>
<defs>
<linearGradient id="paint0_linear_84_63" x1="1589" y1="489.5" x2="-40.9999" y2="489.5" gradientUnits="userSpaceOnUse">
<stop stop-color="#77A1D3"/>
<stop offset="0.5" stop-color="#79CBCA"/>
<stop offset="1" stop-color="#E684AE"/>
</linearGradient>
</defs>
</svg>
